<svg xmlns="http://www.w3.org/2000/svg" width="246" height="56.359" viewBox="0 0 246 56.359">
  <g id="logo_1_" data-name="logo (1)" transform="translate(820 137)">
    <g id="SvgjsG2871" transform="translate(-822.893 -152.075)">
      <g id="Group_2" data-name="Group 2">
        <g id="Group_1" data-name="Group 1">
          <path id="Path_1" data-name="Path 1" d="M39.328,46.749c-6.509-1.191-11.637,3.245-14.113,6a.8.8,0,1,0,1.2,1.074c2.252-2.5,6.889-6.539,12.63-5.49,2.98.545,4.132,3.257,4.216,5.612a.8.8,0,0,0,.8.774h.029a.8.8,0,0,0,.774-.831C44.727,50.141,42.555,47.339,39.328,46.749Z" fill="#d72323"/>
          <path id="Path_2" data-name="Path 2" d="M71.151,62.353a4.578,4.578,0,0,0,4.621,5.063,5.486,5.486,0,0,0,5.353-4.922A4.576,4.576,0,0,0,76.5,57.435,5.483,5.483,0,0,0,71.151,62.353ZM76.5,59.041a2.972,2.972,0,0,1,3.021,3.311,3.847,3.847,0,0,1-3.753,3.456,3.014,3.014,0,0,1-2.257-.96,3.052,3.052,0,0,1-.764-2.355A3.848,3.848,0,0,1,76.5,59.041Z" fill="#d72323"/>
          <path id="Path_3" data-name="Path 3" d="M86.177,55.533c-1.7-4.624-4.716-6.685-9.771-6.685a10.793,10.793,0,0,0-3.675.648,7.624,7.624,0,0,0,.387-5.09c-.225-.9-.989-3.246-1.8-5.729-.4-1.23-.81-2.489-1.16-3.59.2.014.4.024.6.024.837,0,1.615-.166,1.92-.881a11.582,11.582,0,0,0,.452-5.19l-.013-.065c-.219-1.178-1.242-1.419-2.712-1.419a3.172,3.172,0,0,0-2.191.725l-5.909,1.164a43.639,43.639,0,0,0,3.376-3.108c.018-.007.036-.01.053-.018a14.019,14.019,0,0,1,2.136-.827c.051.023.127.062.187.093a3.819,3.819,0,0,0,2.417.462c1.723-.206,3.131-2.1,3.695-3.916,1.03.1,1.852.182,1.871.184h.038c.032,0,.063,0,.094,0s.04,0,.061-.006a.665.665,0,0,0,.1-.02l.055-.016a.873.873,0,0,0,.089-.037l.054-.028a.883.883,0,0,0,.075-.05.414.414,0,0,0,.051-.041c.021-.019.042-.039.062-.06A.581.581,0,0,0,76.767,22a.685.685,0,0,0,.045-.065.885.885,0,0,0,.068-.139.469.469,0,0,0,.026-.083.378.378,0,0,0,.012-.036c0-.012,0-.024,0-.036a.362.362,0,0,0,.01-.045c0-.018,0-.035,0-.052.035-.514-.351-.954-.8-1.455-.131-.147-.34-.381-.424-.505A4.63,4.63,0,0,0,71.8,15.147c-3.231-.456-5.808,1.283-6.867,4.569-.143-.018-.287-.025-.43-.039-.049-.008-.1-.022-.146-.027a.756.756,0,0,0-.164,0,21.894,21.894,0,0,0-16.045,5.779c-5.2,4.734-6.4,9.722-5.3,12.353a2.617,2.617,0,0,0,.771.925H40.97l.911-10.414a.8.8,0,0,0-.8-.874H37.236L35.9,19.494a.816.816,0,0,0-.061-.2,6.06,6.06,0,0,0-5.6-3.625c-1.786-.019-3.329.715-3.85,1.816a2.037,2.037,0,0,0-.191.717,3.778,3.778,0,0,0-3.848,1.571,2.114,2.114,0,0,0,.289,2.31,3.521,3.521,0,0,0-1.185.82,2.56,2.56,0,0,0-.622,2.958c.443.827,1.6,1.7,4.607,1.226l.719.382a.8.8,0,0,0-.519.682L24.653,39.44a.8.8,0,0,0,.8.873h5.385a2.534,2.534,0,0,0-.129.286l-1.071,3.013a.787.787,0,0,0-.04.187c-8.3,6.026-12.3,13.834-11.415,16.579a1.572,1.572,0,0,0,1.541,1.152h2.912c-.049.274-.086.551-.11.823a8.2,8.2,0,0,0,8.287,9.079,9.965,9.965,0,0,0,9.722-8.939,8.9,8.9,0,0,0,.029-.964H60.857a6.472,6.472,0,0,0,3.734-.981,1.833,1.833,0,0,0,.272.392,1.9,1.9,0,0,0,1.428.59h.956c-.05.274-.089.549-.112.823a8.2,8.2,0,0,0,8.287,9.079,9.965,9.965,0,0,0,9.722-8.939,8.355,8.355,0,0,0-1.648-5.87l1.933-.008a.8.8,0,0,0,.748-1.083ZM70.288,24.452a2.228,2.228,0,0,1-1.489-.3,2.258,2.258,0,0,0-.7-.266,2.545,2.545,0,0,0-1.244.233,4.787,4.787,0,0,0,.026-1.467,8.02,8.02,0,0,0,1.093.089,3.893,3.893,0,0,0,1.6-.524,3.862,3.862,0,0,1,.863-.353c.452,0,1.244.052,2.092.12C72.037,23.271,71.088,24.356,70.288,24.452Zm1.286-7.715c2.248.316,2.51,2.61,2.54,3.067a1.429,1.429,0,0,0,.3.736c-1.371-.129-3.157-.279-3.983-.279a3.812,3.812,0,0,0-1.571.517,3.794,3.794,0,0,1-.892.361,9,9,0,0,1-1.715-.226.757.757,0,0,0,.04-.113C67,17.888,68.974,16.37,71.574,16.737ZM49.229,26.616A20.217,20.217,0,0,1,64.242,21.26c.472.093.749.64.848.88a2.872,2.872,0,0,1-.23,2.711,50.741,50.741,0,0,1-5.942,5.263l-1.1.216a.8.8,0,0,0,.31,1.577l10.244-2.019c.259.165.643.473.615.784-.021.235-.608.649-1.261.911A4.152,4.152,0,0,0,64.5,31.55c-1.873.837-7.19,2.938-8.557,3.034a1.638,1.638,0,0,1-1.19-.36,1.518,1.518,0,0,1-.471-1.1c-.052-.934,2.487-5.46,4.815-7.418a.8.8,0,1,0-1.034-1.23c-2.411,2.028-5.481,7.009-5.385,8.738a3.922,3.922,0,0,0,.071.531l-.113-.025c-1.26-.336-5.543-1.037-8.088-.531A16.858,16.858,0,0,1,49.229,26.616Zm4.262,18.529a.8.8,0,0,0,.541-.722.6.6,0,0,0,.057-.106l.554-1.556c.682.106,1.335.2,1.856.275-1.151,2.153-3.831,7.218-5.278,10.368a6.531,6.531,0,0,0-.621,2.667H50.16a2.018,2.018,0,0,1-1.924-1.593C47.516,52.2,48.87,48.449,53.491,45.145Zm-.81,8.93c1.845-4.016,5.739-11.222,5.779-11.3a.8.8,0,0,0-.6-1.179c-.039,0-3.914-.512-5.874-.947-2.432-.54-7.259-2.648-7.654-3.491a4.367,4.367,0,0,1-.221-2.156c.618-.626,5.388-.468,8.123.27l.026,0a.167.167,0,0,0,.024.007c2.192.443,7.627,3.232,8.658,4.3,1.671,1.724,1.259,2.616.384,4.046-.974,1.589-6.313,9.583-6.367,9.665a.8.8,0,0,0,.56,1.242c.71.1,2.314.531,2.75,1.256a.689.689,0,0,1,.1.28h-6.16A4.928,4.928,0,0,1,52.681,54.075Zm7.293,1.968a2.306,2.306,0,0,0-.329-1.078,4.7,4.7,0,0,0-2.7-1.754c1.471-2.2,4.959-7.447,5.751-8.742,1.063-1.739,1.819-3.506-.6-6a19.566,19.566,0,0,0-4.27-2.672c2.227-.66,5.429-1.966,6.786-2.543.8,2.578,2.705,8.767,3.219,10.575a5.808,5.808,0,0,1-.961,5.16c-.384.557-.661.962-.9,1.318-.543.79-.917,1.34-1.932,2.778C62.657,55.033,62.048,55.885,59.973,56.043ZM29.482,27.417l-2.375-1.264,7.407-5.222,1.09,6.485H29.482ZM28.7,20.46c.462-.541,2.356-.633,3.784-.063l-2.739,1.931C28.756,21.37,28.495,20.7,28.7,20.46Zm-.574,3.009-2.074,1.462c-.758-.5-.933-.859-.929-.969,0-.068.133-.232.466-.383A3.971,3.971,0,0,1,28.127,23.469Zm-.282-5.3a2.816,2.816,0,0,1,2.385-.9,4.571,4.571,0,0,1,3.793,2.037l-.063.045c-1.649-1.008-4.378-1.3-5.879-.433-.009-.012-.012-.026-.022-.038C27.706,18.464,27.81,18.245,27.845,18.172ZM23.78,20.508c.326-.634,1.967-1.069,3.3-.391l.02.008a2.213,2.213,0,0,0,.186,1.591,5.356,5.356,0,0,0-2.171.332C24.12,21.491,23.586,20.886,23.78,20.508Zm-1.529,4.6a1.07,1.07,0,0,1,.365-1.089,1.881,1.881,0,0,1,.98-.543,1.673,1.673,0,0,0-.077.423,2.262,2.262,0,0,0,.8,1.7C23.054,25.677,22.415,25.411,22.251,25.1Zm4.925,3.92H40.2l-.847,9.68H26.329ZM40.093,40.312h6.258a32.459,32.459,0,0,0,5.285,1.911c.407.091.89.182,1.4.272l-.387,1.09H31.351l.872-2.45a1.324,1.324,0,0,1,1.083-.823ZM38.934,62.353a8.325,8.325,0,0,1-8.121,7.471,6.592,6.592,0,0,1-6.686-7.332,7.875,7.875,0,0,1,.153-.964h2.406a5.274,5.274,0,0,0-.145.823,4.579,4.579,0,0,0,4.622,5.063,5.486,5.486,0,0,0,5.353-4.923,4.938,4.938,0,0,0-.011-.964h2.45A7.86,7.86,0,0,1,38.934,62.353Zm-4.05-.824a3.382,3.382,0,0,1,.032.823,3.848,3.848,0,0,1-3.753,3.456,3.014,3.014,0,0,1-2.257-.96,3.046,3.046,0,0,1-.764-2.353,3.57,3.57,0,0,1,.223-.966h6.518ZM19.726,59.921a1.733,1.733,0,0,1-.025-.886c.374-2.606,3.614-8.643,10.713-13.843h20.43c-4.133,3.643-4.876,7.438-4.138,9.773a3.622,3.622,0,0,0,3.456,2.716h9.032c3.566,0,4.539-1.382,6.154-3.672,1.022-1.448,1.4-2,1.945-2.8.242-.354.519-.759.9-1.314a7.352,7.352,0,0,0,1.183-6.511c-.514-1.807-2.4-7.919-3.208-10.542a3.023,3.023,0,0,1,1.128.3.8.8,0,0,0,.639.067c.421-.133,2.523-.873,2.657-2.405a2.159,2.159,0,0,0-.581-1.628,3.2,3.2,0,0,1,.4-.021,3.854,3.854,0,0,1,1.132.111q.015.073.03.144a10.709,10.709,0,0,1-.316,4.05,6.834,6.834,0,0,1-1.526-.026c-.27-.025-.505-.046-.692-.046-.013,0-.024,0-.038,0a.763.763,0,0,0-.081.008.553.553,0,0,0-.083.017c-.012,0-.024,0-.036.007a.334.334,0,0,0-.035.015c-.026.01-.053.021-.079.033s-.045.023-.066.036-.044.029-.064.044l-.062.05c-.019.017-.035.035-.053.054a.726.726,0,0,0-.049.061c-.016.021-.029.042-.043.064a.481.481,0,0,0-.036.067c-.011.024-.021.047-.03.072a.663.663,0,0,0-.023.076.571.571,0,0,0-.015.072.843.843,0,0,0-.009.088c0,.012,0,.023,0,.036s0,.023,0,.036a.812.812,0,0,0,.009.085.77.77,0,0,0,.016.081c0,.012,0,.024.008.036.409,1.323.975,3.061,1.521,4.74.765,2.346,1.555,4.772,1.765,5.619a6.083,6.083,0,0,1-.963,5.236c-1.014,1.47-2.557,3.677-4.587,6.554A18.825,18.825,0,0,1,64.628,58.4a.791.791,0,0,0-.121.131,4.513,4.513,0,0,1-3.648,1.391Zm63.816,2.432a8.325,8.325,0,0,1-8.121,7.471,6.593,6.593,0,0,1-6.687-7.332,7.866,7.866,0,0,1,.184-1.1,9.166,9.166,0,0,0,2.626-2.157c1.136-1.152,2.549-2.587,3.548-2.587,2.086,0,4.34-.006,6.208-.014A6.66,6.66,0,0,1,83.541,62.353Zm-8.45-7.316c-1.671,0-3.277,1.63-4.693,3.068-.665.676-1.777,1.805-2.164,1.818H66.29a.37.37,0,0,1-.243-.068.849.849,0,0,1-.115-.508,22.119,22.119,0,0,0,1.391-1.836c1.49-2.112,2.716-3.862,3.667-5.229a.694.694,0,0,0,.074-.051,8.7,8.7,0,0,1,5.343-1.777c3.978,0,6.316,1.338,7.817,4.559C82.325,55.023,78.485,55.037,75.091,55.037Z" fill="#d72323"/>
          <path id="Path_4" data-name="Path 4" d="M13.089,38.274h7.936a.8.8,0,1,0,0-1.607H13.089a.8.8,0,1,0,0,1.607Z" fill="#d72323"/>
          <path id="Path_5" data-name="Path 5" d="M23.151,42.967a.8.8,0,0,0-.8-.8H3.7a.8.8,0,0,0,0,1.608h18.65A.8.8,0,0,0,23.151,42.967Z" fill="#d72323"/>
          <path id="Path_6" data-name="Path 6" d="M15.17,47.8H7.787a.8.8,0,1,0,0,1.607h7.384a.8.8,0,1,0,0-1.607Z" fill="#d72323"/>
        </g>
      </g>
    </g>
    <g id="Group_3" data-name="Group 3" transform="translate(-8 -6)">
      <text id="SnapEats" transform="translate(-717 -92)" fill="#e83c54" font-size="38" font-family="PlantagenetCherokee, Plantagenet Cherokee"><tspan x="0" y="0">SnapEats</tspan></text>
    </g>
  </g>
</svg>
